<?xml version="1.0" standalone="no"?>
<!DOCTYPE svg PUBLIC "-//W3C//DTD SVG 20010904//EN"
 "http://www.w3.org/TR/2001/REC-SVG-20010904/DTD/svg10.dtd">
<svg version="1.0" xmlns="http://www.w3.org/2000/svg"
 width="736.000000pt" height="736.000000pt" viewBox="0 0 736.000000 736.000000"
 preserveAspectRatio="xMidYMid meet">

<g transform="translate(0.000000,736.000000) scale(0.100000,-0.100000)"
fill="#000000" stroke="none">
<path d="M1866 6514 l-26 -27 0 -962 c0 -799 -2 -964 -14 -974 -16 -14 -115
-48 -176 -62 -25 -6 -155 -14 -290 -18 -171 -6 -263 -13 -303 -24 -182 -50
-272 -134 -335 -310 -23 -64 -26 -88 -26 -217 -1 -96 4 -158 12 -185 61 -182
150 -267 352 -335 91 -31 276 -39 387 -16 44 9 82 16 85 16 3 0 8 -17 12 -37
14 -85 116 -288 200 -399 7 -8 -5 -64 -34 -166 -40 -140 -44 -164 -45 -275 -2
-110 -6 -137 -35 -208 -8 -19 -13 -39 -39 -157 -14 -60 -14 -129 0 -164 6 -19
7 -35 1 -49 -6 -11 -18 -38 -27 -60 -9 -22 -28 -65 -42 -95 -24 -53 -38 -84
-83 -185 -11 -25 -29 -65 -40 -90 -11 -25 -29 -65 -40 -90 -11 -25 -28 -64
-39 -88 -17 -38 -101 -208 -172 -347 -33 -63 -37 -129 -15 -221 30 -123 62
-149 188 -149 42 0 80 5 83 10 4 6 -15 10 -50 10 -67 0 -66 -2 -94 167 -20
121 -37 157 -82 180 -19 10 -20 13 -6 13 57 0 80 -41 107 -196 12 -65 26 -124
33 -132 11 -13 90 -13 103 1 11 11 -17 47 -37 47 -22 0 -37 29 -35 69 1 18 8
27 26 31 21 5 22 7 8 13 -26 9 -22 27 5 27 29 0 37 7 30 25 -3 10 -11 11 -30
4 -13 -5 -29 -6 -35 -3 -14 9 31 54 54 54 11 0 16 5 12 11 -3 6 -17 8 -32 4
-23 -6 -24 -5 -11 12 8 10 16 20 19 23 3 3 25 29 49 58 l43 52 81 0 c45 1 102
5 127 10 57 11 110 -2 168 -42 41 -28 48 -30 110 -25 37 3 87 11 112 18 49 13
174 15 288 4 61 -6 72 -10 68 -24 -3 -9 -8 -38 -11 -66 -7 -53 -40 -208 -56
-262 -13 -41 3 -67 51 -83 40 -13 149 -9 235 9 28 6 67 14 88 17 21 4 40 11
44 17 4 6 -3 8 -18 5 -239 -54 -389 -51 -389 8 0 13 4 13 28 1 46 -24 92 -28
181 -17 76 10 115 16 210 36 22 5 23 4 10 -13 -12 -16 -11 -16 9 1 28 24 28
57 0 83 -33 30 -60 35 -95 18 -26 -13 -39 -14 -77 -4 -56 14 -63 35 -8 24 49
-10 73 -9 86 6 8 8 3 9 -21 4 -33 -7 -47 8 -18 19 8 3 15 12 15 21 0 8 5 15
10 15 6 0 10 8 10 17 0 15 -2 15 -19 -3 -44 -45 -81 -67 -81 -47 0 17 53 73
71 73 10 0 19 5 19 10 0 6 -9 10 -19 10 -11 0 -23 -4 -26 -10 -3 -5 -11 -10
-17 -10 -11 0 -7 33 12 110 19 75 40 181 60 305 5 28 14 82 20 120 26 156 30
183 39 245 24 159 32 215 51 376 22 191 50 538 50 627 l0 57 1845 0 1846 0 24
26 25 27 0 1837 0 1837 -26 27 -27 26 -2337 0 -2337 0 -27 -26z m4705 -13 c21
-17 24 -29 27 -110 l4 -91 -2371 0 -2371 0 0 90 c0 79 3 92 22 110 l22 20
2322 0 c2271 0 2322 0 2345 -19z m29 -458 l0 -228 -2370 0 -2370 0 0 228 0
227 2370 0 2370 0 0 -227z m0 -1729 c0 -1490 0 -1504 -34 -1526 -6 -4 -838 -8
-1848 -8 l-1838 0 0 118 c0 64 -5 168 -11 231 -6 62 -9 115 -7 117 2 2 35 -7
74 -20 103 -35 221 -50 329 -42 113 8 276 47 320 78 36 24 85 100 106 163 7
22 16 44 21 49 4 5 58 -16 120 -47 145 -72 240 -97 393 -104 96 -4 139 -1 215
15 356 74 637 340 731 692 30 112 33 336 6 450 -26 111 -20 107 -128 70 -229
-80 -736 -258 -753 -265 -17 -8 -18 -5 -13 36 3 24 38 213 77 419 40 206 73
393 74 415 l1 40 -85 8 c-273 26 -543 -70 -741 -263 -132 -129 -216 -273 -265
-455 -25 -93 -29 -272 -10 -385 21 -118 19 -120 -104 -120 -77 0 -93 3 -158
35 -100 48 -139 76 -272 199 -130 121 -231 180 -325 191 l-55 7 0 40 c0 33 6
45 36 71 41 37 64 76 64 110 0 14 7 30 15 37 21 17 19 29 -8 54 -17 16 -26 38
-30 74 -14 118 -84 182 -200 182 -128 0 -198 -53 -278 -211 -49 -99 -119 -189
-145 -189 -12 0 -14 99 -14 605 l0 605 2370 0 2370 0 0 -1476z m-2187 859 c3
-5 -30 -192 -73 -418 -95 -503 -93 -495 -70 -495 17 0 323 104 665 226 99 35
186 64 192 64 6 0 20 -35 30 -77 27 -117 25 -321 -6 -433 -47 -175 -134 -324
-259 -441 -121 -115 -227 -175 -397 -225 -77 -22 -110 -26 -225 -27 -117 -1
-148 3 -235 26 -100 27 -272 105 -296 133 -10 12 -8 37 10 127 18 86 24 159
28 312 4 184 7 205 30 265 40 101 53 125 76 136 39 17 68 87 77 182 6 74 16
110 69 238 33 83 61 157 61 164 0 34 -32 -12 -105 -151 -62 -117 -85 -153 -98
-151 -26 5 -114 -92 -176 -194 -115 -187 -184 -291 -224 -332 -46 -47 -105
-88 -114 -79 -9 10 -21 86 -29 182 -23 310 134 639 386 812 104 71 264 137
380 156 45 8 299 7 303 0z m-1919 -445 c3 -13 6 -47 6 -77 0 -49 -3 -57 -39
-92 -54 -54 -71 -52 -71 10 0 27 -7 65 -16 86 -8 21 -13 44 -10 51 9 24 37 15
47 -16 17 -48 46 -40 55 15 7 49 18 58 28 23z m1372 -177 c-18 -46 -8 -55 46
-44 30 6 31 5 24 -23 -4 -16 -17 -49 -29 -74 -20 -41 -25 -45 -64 -48 -23 -2
-46 -9 -52 -15 -5 -7 -11 -46 -13 -87 -2 -48 -7 -75 -15 -78 -7 -2 -13 4 -13
12 0 9 -20 37 -45 62 -25 24 -45 47 -45 50 0 16 128 211 168 255 50 55 63 52
38 -10z m-1882 14 c89 -23 136 -45 136 -65 0 -23 -20 -30 -80 -30 -30 0 -52
-5 -60 -15 -17 -21 -70 -19 -125 5 -26 11 -57 20 -70 20 -37 0 -39 17 -3 29
18 6 53 25 78 41 53 35 45 34 124 15z m482 -176 c32 -6 67 -15 78 -21 17 -9
14 -12 -20 -28 -70 -31 -125 -104 -184 -247 -61 -146 -110 -227 -151 -248 -30
-16 -99 -20 -99 -7 0 5 25 47 56 92 70 105 142 249 183 364 17 48 34 92 37 97
7 12 28 11 100 -2z m-1076 -39 c0 -6 -43 -10 -108 -10 -142 0 -223 -24 -340
-101 -24 -16 -31 -17 -26 -6 12 32 152 106 224 120 51 9 250 7 250 -3z m1210
-20 c0 -5 -13 -10 -28 -10 -15 0 -32 -3 -38 -7 -5 -5 -1 0 9 10 21 18 57 23
57 7z m-1010 -21 c0 -31 -209 -79 -285 -65 -66 13 -47 25 37 25 89 0 164 13
207 36 32 17 41 18 41 4z m1116 -31 c27 -23 84 -75 127 -115 87 -81 205 -159
281 -185 30 -10 81 -17 124 -18 60 0 83 5 130 28 69 33 172 134 231 225 24 37
50 67 57 67 21 0 72 -77 89 -133 20 -66 19 -120 -2 -160 -50 -97 -200 -261
-323 -352 -36 -27 -67 -50 -69 -52 -2 -2 -2 -6 1 -9 18 -18 196 106 317 222
53 50 91 80 91 70 0 -8 -5 -61 -11 -116 -11 -96 -13 -102 -45 -128 -59 -49
-188 -121 -285 -158 -89 -35 -101 -37 -239 -41 -122 -4 -162 -2 -249 16 -103
22 -140 22 -85 0 144 -56 468 -72 624 -31 47 13 111 32 143 43 32 11 62 19 67
17 5 -2 -9 -41 -33 -88 -48 -97 -70 -113 -212 -151 -115 -31 -327 -31 -440 -1
-175 48 -314 147 -411 295 -26 39 -52 75 -58 79 -23 16 -56 7 -72 -17 -14 -21
-15 -32 -5 -72 18 -72 37 -100 122 -185 82 -82 87 -93 110 -211 16 -84 47
-116 122 -124 l57 -6 0 -191 c-1 -352 -53 -866 -139 -1369 -43 -246 -46 -254
-112 -288 -87 -44 -260 -73 -313 -53 -25 10 -20 66 25 245 66 270 149 645 149
678 0 17 -4 31 -9 31 -13 0 -22 -30 -106 -380 -115 -480 -123 -507 -164 -544
-24 -21 -163 -57 -233 -59 -109 -4 -141 55 -98 184 12 35 55 160 96 277 68
196 90 282 64 256 -10 -10 -114 -286 -175 -464 -40 -117 -59 -156 -85 -170
-11 -6 -72 -15 -135 -21 -96 -9 -122 -8 -169 5 -59 18 -156 87 -156 112 0 9
36 96 79 193 44 97 118 262 164 366 86 191 132 293 290 635 78 168 94 211 67
184 -5 -5 -61 -121 -124 -258 -64 -137 -121 -253 -128 -258 -16 -10 -20 -10
-37 1 -26 17 19 180 110 393 76 181 199 527 199 562 0 45 -21 -2 -78 -177 -72
-216 -130 -358 -151 -365 -25 -8 -6 123 42 293 70 245 79 303 84 545 5 199 7
217 26 237 35 39 53 38 103 -6 56 -49 100 -65 169 -59 67 6 120 46 170 127 47
78 78 163 131 361 25 91 55 183 67 205 26 47 107 105 147 105 18 0 44 -15 76
-42z m-231 -25 c-26 -34 -47 -85 -81 -192 -116 -370 -186 -481 -300 -481 -45
0 -94 28 -127 72 l-20 26 39 47 39 46 52 -6 c144 -18 215 54 303 310 43 126
56 152 98 198 38 41 37 33 -3 -20z m-1481 -563 c71 -27 40 -90 -44 -90 -59 0
-85 18 -77 52 10 40 68 59 121 38z m51 -115 c105 0 196 -4 203 -8 36 -24 -1
-69 -73 -88 -53 -15 -68 -28 -60 -56 3 -13 2 -23 -2 -23 -15 0 -138 47 -182
70 -46 23 -136 101 -152 133 -9 16 -5 16 33 -5 41 -22 54 -23 233 -23z m709
-101 c9 -8 19 -27 23 -42 13 -46 8 -383 -6 -417 l-13 -30 -30 35 c-58 68 -191
372 -171 391 9 8 164 78 175 79 4 0 14 -7 22 -16z m-351 -2350 c29 -15 54 -28
56 -30 2 -2 -20 -29 -49 -61 -29 -32 -61 -70 -70 -85 -22 -37 -30 -26 -23 31
6 55 -19 96 -67 106 l-30 6 31 60 30 60 35 -30 c19 -17 58 -43 87 -57z m1237
-113 c-41 -162 -70 -238 -95 -247 -9 -4 -33 8 -61 29 -25 20 -50 37 -54 39 -7
2 7 124 25 214 4 16 19 25 69 38 53 15 91 33 152 75 1 1 -16 -66 -36 -148z"/>
<path d="M6242 6458 c-15 -15 -16 -72 -2 -99 16 -29 95 -27 111 2 13 26 5 89
-13 101 -20 12 -82 10 -96 -4z m83 -53 c0 -27 -4 -30 -32 -33 -32 -3 -33 -2
-33 33 0 35 1 36 33 33 28 -3 32 -6 32 -33z"/>
<path d="M6511 6449 c-20 -19 -24 -20 -46 -5 -37 24 -49 19 -26 -11 18 -22 19
-28 8 -42 -17 -19 -29 -51 -20 -51 4 0 17 10 29 21 l23 21 30 -22 c24 -16 31
-18 31 -7 0 8 -7 20 -15 27 -20 17 -19 30 6 56 27 28 9 40 -20 13z"/>
<path d="M6047 6364 c-15 -15 8 -24 59 -24 41 0 54 4 54 15 0 11 -13 15 -53
15 -30 0 -57 -3 -60 -6z"/>
<path d="M2740 6161 c0 -5 -18 -12 -40 -16 -76 -13 -116 -103 -74 -164 26 -36
79 -54 120 -41 40 13 74 53 74 86 0 34 -16 30 -29 -7 -6 -18 -19 -38 -28 -45
-60 -45 -149 23 -122 93 18 47 69 70 86 38 10 -18 53 -9 53 12 0 20 -19 53
-30 53 -6 0 -10 -4 -10 -9z"/>
<path d="M3018 6159 c-15 -8 -18 -25 -18 -112 0 -56 5 -109 10 -117 8 -13 190
-15 1540 -15 1350 0 1532 2 1540 15 5 8 10 61 10 117 0 91 -2 103 -19 113 -27
14 -3039 13 -3063 -1z m3060 -99 c2 -41 0 -85 -3 -97 l-5 -23 -1519 0 c-1376
0 -1519 1 -1525 16 -8 20 -8 148 0 168 6 15 147 16 1528 14 l1521 -3 3 -75z"/>
<path d="M6287 6159 c-23 -13 -47 -62 -47 -94 0 -39 50 -85 92 -85 19 0 39 5
44 10 7 7 24 -2 53 -26 51 -44 67 -37 22 10 -30 30 -32 38 -27 73 4 21 3 51
-3 65 -17 46 -91 72 -134 47z m95 -36 c22 -20 24 -76 2 -97 -8 -9 -31 -16 -49
-16 -18 0 -41 7 -49 16 -21 20 -20 73 1 96 20 22 70 23 95 1z"/>
<path d="M2045 6095 l-60 -55 45 -41 c58 -52 89 -73 97 -65 3 3 -17 27 -45 52
-29 26 -52 51 -52 55 0 5 20 27 45 50 42 39 55 59 38 59 -5 0 -35 -25 -68 -55z"/>
<path d="M2300 6145 c0 -3 24 -28 53 -55 l52 -50 -53 -48 c-50 -45 -62 -62
-43 -62 12 0 131 101 131 111 0 11 -118 109 -131 109 -5 0 -9 -2 -9 -5z"/>
<path d="M4596 5369 c-2 -8 -13 -63 -25 -124 -81 -436 -143 -763 -147 -777 -3
-11 0 -18 8 -18 8 0 183 59 388 131 206 72 403 140 438 152 34 11 62 26 62 32
0 20 -71 159 -116 226 -57 86 -191 213 -284 269 -74 45 -217 103 -282 115 -28
5 -39 4 -42 -6z"/>
<path d="M2526 2908 c-3 -7 -23 -101 -45 -208 -75 -353 -170 -672 -292 -977
-38 -94 -69 -174 -69 -178 0 -41 96 145 163 315 109 278 224 712 252 950 3 30
8 67 11 83 6 27 -13 40 -20 15z"/>
</g>
</svg>
